<svg width="512" height="512" viewBox="0 0 512 512" xmlns="http://www.w3.org/2000/svg">
  <!-- Background circle with gradient -->
  <defs>
    <linearGradient id="bgGradient" x1="0%" y1="0%" x2="100%" y2="100%">
      <stop offset="0%" style="stop-color:#2383e2;stop-opacity:1" />
      <stop offset="100%" style="stop-color:#1a6bb8;stop-opacity:1" />
    </linearGradient>
    <linearGradient id="iconGradient" x1="0%" y1="0%" x2="100%" y2="100%">
      <stop offset="0%" style="stop-color:#ffffff;stop-opacity:1" />
      <stop offset="100%" style="stop-color:#f0f9ff;stop-opacity:1" />
    </linearGradient>
  </defs>
  
  <!-- Background -->
  <circle cx="256" cy="256" r="240" fill="url(#bgGradient)" stroke="#1a6bb8" stroke-width="8"/>
  
  <!-- AI Brain/Neural Network Icon -->
  <g fill="url(#iconGradient)">
    <!-- Main brain shape -->
    <ellipse cx="256" cy="220" rx="80" ry="60" fill="url(#iconGradient)"/>
    
    <!-- Neural network nodes -->
    <circle cx="200" cy="180" r="12" fill="url(#iconGradient)"/>
    <circle cx="256" cy="160" r="12" fill="url(#iconGradient)"/>
    <circle cx="312" cy="180" r="12" fill="url(#iconGradient)"/>
    <circle cx="180" cy="240" r="12" fill="url(#iconGradient)"/>
    <circle cx="256" cy="220" r="12" fill="url(#iconGradient)"/>
    <circle cx="332" cy="240" r="12" fill="url(#iconGradient)"/>
    <circle cx="200" cy="300" r="12" fill="url(#iconGradient)"/>
    <circle cx="256" cy="280" r="12" fill="url(#iconGradient)"/>
    <circle cx="312" cy="300" r="12" fill="url(#iconGradient)"/>
    
    <!-- Connection lines -->
    <g stroke="url(#iconGradient)" stroke-width="3" fill="none" opacity="0.8">
      <line x1="200" y1="180" x2="256" y2="160"/>
      <line x1="256" y1="160" x2="312" y2="180"/>
      <line x1="200" y1="180" x2="180" y2="240"/>
      <line x1="256" y1="160" x2="256" y2="220"/>
      <line x1="312" y1="180" x2="332" y2="240"/>
      <line x1="180" y1="240" x2="256" y2="220"/>
      <line x1="256" y1="220" x2="332" y2="240"/>
      <line x1="180" y1="240" x2="200" y2="300"/>
      <line x1="256" y1="220" x2="256" y2="280"/>
      <line x1="332" y1="240" x2="312" y2="300"/>
      <line x1="200" y1="300" x2="256" y2="280"/>
      <line x1="256" y1="280" x2="312" y2="300"/>
    </g>
    
    <!-- News/Article symbol -->
    <rect x="220" y="320" width="72" height="8" rx="4" fill="url(#iconGradient)"/>
    <rect x="220" y="340" width="60" height="8" rx="4" fill="url(#iconGradient)"/>
    <rect x="220" y="360" width="50" height="8" rx="4" fill="url(#iconGradient)"/>
  </g>
</svg>
